HIERARCHY
ROOT Hips
{
	OFFSET 0.000000 0.000000 0.000000
	CHANNELS 6 Xposition Yposition Zposition Zrotation Yrotation Xrotation 
	JOINT LHipJoint
	{
		OFFSET 0.000000 0.000000 0.000000
		CHANNELS 3 Zrotation Yrotation Xrotation
		JOINT LeftUpLeg
		{
			OFFSET 1.363060 -1.794630 0.839290
			CHANNELS 3 Zrotation Yrotation Xrotation
			JOINT LeftLeg
			{
				OFFSET 2.448110 -6.726130 0.000000
				CHANNELS 3 Zrotation Yrotation Xrotation
				JOINT LeftFoot
				{
					OFFSET 2.562200 -7.039590 0.000000
					CHANNELS 3 Zrotation Yrotation Xrotation
					JOINT LeftToeBase
					{
						OFFSET 0.157640 -0.433110 2.322550
						CHANNELS 3 Zrotation Yrotation Xrotation
						End Site
						{
							OFFSET 0.000000 0.000000 0.000000
						}
					}
				}
			}
		}
	}
	JOINT RHipJoint
	{
		OFFSET 0.000000 0.000000 0.000000
		CHANNELS 3 Zrotation Yrotation Xrotation
		JOINT RightUpLeg
		{
			OFFSET -1.305520 -1.794630 0.839290
			CHANNELS 3 Zrotation Yrotation Xrotation
			JOINT RightLeg
			{
				OFFSET -2.542530 -6.985550 0.000000
				CHANNELS 3 Zrotation Yrotation Xrotation
				JOINT RightFoot
				{
					OFFSET -2.568260 -7.056230 0.000000
					CHANNELS 3 Zrotation Yrotation Xrotation
					JOINT RightToeBase
					{
						OFFSET -0.164730 -0.452590 2.363150
						CHANNELS 3 Zrotation Yrotation Xrotation
						End Site
						{
							OFFSET 0.000000 0.000000 0.000000
						}
					}
				}
			}
		}
	}
	JOINT LowerBack
	{
		OFFSET 0.000000 0.000000 0.000000
		CHANNELS 3 Zrotation Yrotation Xrotation
		JOINT Spine
		{
			OFFSET 0.028270 2.035590 -0.193380
			CHANNELS 3 Zrotation Yrotation Xrotation
			JOINT Spine1
			{
				OFFSET 0.056720 2.048850 -0.042750
				CHANNELS 3 Zrotation Yrotation Xrotation
				JOINT Neck
				{
					OFFSET 0.000000 0.000000 0.000000
					CHANNELS 3 Zrotation Yrotation Xrotation
					JOINT Neck1
					{
						OFFSET -0.054170 1.746240 0.172020
						CHANNELS 3 Zrotation Yrotation Xrotation
						JOINT Head
						{
							OFFSET 0.104070 1.761360 -0.123970
							CHANNELS 3 Zrotation Yrotation Xrotation
							End Site
							{
								OFFSET 0.000000 0.000000 0.000000
							}
						}
					}
				}
				JOINT LeftShoulder
				{
					OFFSET 0.000000 0.000000 0.000000
					CHANNELS 3 Zrotation Yrotation Xrotation
					JOINT LeftArm
					{
						OFFSET 3.362410 1.200890 -0.311210
						CHANNELS 3 Zrotation Yrotation Xrotation
						JOINT LeftForeArm
						{
							OFFSET 4.983000 -0.000000 -0.000000
							CHANNELS 3 Zrotation Yrotation Xrotation
							JOINT LeftHand
							{
								OFFSET 3.483560 -0.000000 -0.000000
								CHANNELS 3 Zrotation Yrotation Xrotation
								JOINT LeftFingerBase
								{
									OFFSET 0.000000 0.000000 0.000000
									CHANNELS 3 Zrotation Yrotation Xrotation
									JOINT LeftHandIndex1
									{
										OFFSET 0.715260 -0.000000 -0.000000
										CHANNELS 3 Zrotation Yrotation Xrotation
										End Site
										{
											OFFSET 0.000000 0.000000 0.000000
										}
									}
								}
								JOINT LThumb
								{
									OFFSET 0.000000 0.000000 0.000000
									CHANNELS 3 Zrotation Yrotation Xrotation
									End Site
									{
										OFFSET 0.000000 0.000000 0.000000
									}
								}
							}
						}
					}
				}
				JOINT RightShoulder
				{
					OFFSET 0.000000 0.000000 0.000000
					CHANNELS 3 Zrotation Yrotation Xrotation
					JOINT RightArm
					{
						OFFSET -3.136600 1.374050 -0.404650
						CHANNELS 3 Zrotation Yrotation Xrotation
						JOINT RightForeArm
						{
							OFFSET -5.241900 -0.000000 -0.000000
							CHANNELS 3 Zrotation Yrotation Xrotation
							JOINT RightHand
							{
								OFFSET -3.444170 -0.000000 -0.000000
								CHANNELS 3 Zrotation Yrotation Xrotation
								JOINT RightFingerBase
								{
									OFFSET 0.000000 0.000000 0.000000
									CHANNELS 3 Zrotation Yrotation Xrotation
									JOINT RightHandIndex1
									{
										OFFSET -0.622530 -0.000000 -0.000000
										CHANNELS 3 Zrotation Yrotation Xrotation
										End Site
										{
											OFFSET 0.000000 0.000000 0.000000
										}
									}
								}
								JOINT RThumb
								{
									OFFSET 0.000000 0.000000 0.000000
									CHANNELS 3 Zrotation Yrotation Xrotation
									End Site
									{
										OFFSET 0.000000 0.000000 0.000000
									}
								}
							}
						}
					}
				}
			}
		}
	}
}
MOTION
Frames: 12
Frame Time: 0.008333
3.005260 15.979468 2.107059 168.085768 -88.698065 -125.688293 -10.130138 0.893185 0.164536 -23.789297 1.863672 -73.644250 -3.686352 4.470099 47.773648 2.648539 6.617984 -20.404177 -1.537900 0.000000 -31.643000 7.397037 1.364863 -0.918553 14.430456 -15.233804 -73.644737 5.053549 -5.164007 40.724221 0.914511 6.332421 -4.913501 0.321200 0.000000 -71.547300 5.630381 -3.535843 2.916657 0.788349 -3.853371 -2.777801 -5.451625 -3.794085 -2.085263 12.063061 -14.719310 -6.660520 -2.453314 -0.164535 -0.214665 0.000000 0.000000 0.000000 19.015240 0.000015 -1.757279 -85.930863 -17.234863 12.129604 179.454147 -56.470920 179.841862 11.785093 -2.342371 -0.333376 -0.236652 0.862449 -0.000000 0.000000 0.000000 0.000000 0.000000 0.000000 0.000000 2.512539 -12.391683 0.962622 77.243041 10.387711 22.260167 -179.744726 61.047097 179.823694 -17.196379 8.886136 -1.506658 0.409939 -0.839551 0.000000 0.000000 0.000000 0.000000 0.000000 0.000000 0.000000 
3.001309 15.985194 2.113947 171.230975 -89.139186 -129.024834 -10.063779 0.953606 0.225299 -23.535956 1.748707 -73.404794 -3.659978 4.439140 47.706497 2.629167 6.550058 -20.354994 -1.518900 0.000000 -31.713299 7.468433 1.434618 -1.013692 14.533050 -15.518086 -73.289379 5.036210 -5.141765 40.740158 0.868218 6.125224 -5.001941 0.294500 -0.000000 -71.579700 5.736230 -3.452970 2.911452 0.806423 -3.777099 -2.776525 -5.440699 -3.715192 -2.076575 12.079207 -14.684011 -6.683057 -2.450512 -0.164069 -0.219881 0.000000 0.000000 0.000000 19.077313 0.176914 -1.755854 -86.035896 -17.281382 12.419587 179.430323 -56.427842 179.841618 11.781849 -2.347750 -0.333987 -0.235579 0.863666 -0.000000 0.000000 0.000000 0.000000 0.000000 0.000000 0.000000 2.464596 -12.307928 0.940940 77.281554 10.518642 22.103378 -179.735624 60.934735 179.822060 -17.294969 8.958603 -1.527543 0.412774 -0.844019 -0.000000 0.000000 0.000000 0.000000 0.000000 0.000000 0.000000 
2.996826 15.991722 2.120611 173.470947 -89.611386 -131.468245 -10.015341 0.987825 0.290202 -23.289981 1.616662 -73.130585 -3.631499 4.398102 47.622662 2.606629 6.474123 -20.293392 -1.497800 0.000001 -31.795800 7.524033 1.475573 -1.103939 14.624748 -15.833770 -72.923073 5.022601 -5.121786 40.739534 0.819757 5.908514 -5.091477 0.267901 -0.000000 -71.611200 5.824590 -3.380341 2.892522 0.822347 -3.710591 -2.777826 -5.423207 -3.646102 -2.067238 12.089394 -14.639612 -6.703286 -2.446727 -0.163584 -0.224251 0.000000 0.000000 0.000000 19.131887 0.358976 -1.751604 -86.151164 -17.324976 12.732728 179.405947 -56.387406 179.841444 11.770950 -2.355027 -0.334598 -0.234160 0.865083 -0.000000 0.000000 0.000000 0.000000 0.000000 0.000000 0.000000 2.405255 -12.218911 0.915025 77.325699 10.687679 21.921569 -179.730691 60.836168 179.820870 -17.337913 9.067619 -1.549434 0.413831 -0.849600 0.000000 0.000000 0.000000 0.000000 0.000000 0.000000 0.000000 
2.991848 15.999082 2.127043 -4.858745 -89.893707 46.645649 -9.980447 1.007121 0.360383 -23.048430 1.472947 -72.828381 -3.601945 4.350145 47.522004 2.581559 6.391636 -20.220740 -1.474599 -0.000000 -31.886100 7.567684 1.497711 -1.191008 14.711158 -16.174029 -72.543013 5.011821 -5.101545 40.722374 0.769964 5.685358 -5.180521 0.241500 -0.000000 -71.641400 5.899507 -3.311922 2.860391 0.836972 -3.647910 -2.781957 -5.398721 -3.580996 -2.058596 12.088876 -14.579653 -6.719251 -2.441426 -0.163066 -0.227180 0.000000 0.000000 0.000000 19.175562 0.550999 -1.743660 -86.274092 -17.366231 13.067739 179.380566 -56.349829 179.841311 11.754552 -2.362567 -0.335008 -0.232443 0.866634 0.000000 0.000000 0.000000 0.000000 0.000000 0.000000 0.000000 2.326914 -12.113552 0.884045 77.381039 10.892135 21.703993 -179.728749 60.757287 179.820192 -17.315525 9.206585 -1.570232 0.412618 -0.856061 -0.000000 0.000000 0.000000 0.000000 0.000000 0.000000 0.000000 
2.986136 16.007076 2.133330 -3.575346 -89.377877 45.140561 -9.956217 1.017646 0.439069 -22.806900 1.314631 -72.508696 -3.571398 4.296787 47.405165 2.554765 6.304808 -20.136774 -1.449300 0.000000 -31.998600 7.602358 1.505512 -1.273120 14.794382 -16.529735 -72.152713 5.003169 -5.079827 40.689608 0.718451 5.452851 -5.269189 0.214900 -0.000000 -71.665900 5.965152 -3.242681 2.809862 0.851307 -3.584262 -2.789971 -5.365884 -3.515172 -2.050338 12.075046 -14.510734 -6.732210 -2.434335 -0.162488 -0.228911 0.000000 0.000000 0.000000 19.209216 0.749661 -1.733184 -86.409528 -17.401227 13.421966 179.352933 -56.316626 179.841263 11.729507 -2.372279 -0.335421 -0.230172 0.868310 -0.000000 0.000000 0.000000 0.000000 0.000000 0.000000 0.000000 2.229253 -11.996163 0.848587 77.440872 11.137728 21.450353 -179.730091 60.706083 179.819975 -17.238940 9.353778 -1.587136 0.409532 -0.862714 -0.000000 0.000000 0.000000 0.000000 0.000000 0.000000 0.000000 
2.979910 16.015828 2.139370 -2.527424 -88.845117 43.860075 -9.938067 1.024278 0.524552 -22.567898 1.146274 -72.168105 -3.540586 4.238809 47.271066 2.526392 6.213859 -20.042970 -1.422300 0.000000 -32.111000 7.631929 1.503930 -1.352682 14.877349 -16.905374 -71.748994 4.996905 -5.056118 40.639435 0.666674 5.218426 -5.356297 0.188899 -0.000000 -71.688599 6.024946 -3.170998 2.745015 0.865693 -3.518113 -2.801873 -5.325683 -3.447128 -2.046029 12.041324 -14.416449 -6.738417 -2.425202 -0.161880 -0.228403 0.000000 0.000000 0.000000 19.226964 0.960823 -1.717946 -86.547043 -17.436960 13.796705 179.324089 -56.292653 179.841189 11.705069 -2.378806 -0.335535 -0.227798 0.869969 0.000000 0.000000 0.000000 0.000000 0.000000 0.000000 0.000000 2.102712 -11.846453 0.807329 77.515416 11.404933 21.143774 -179.729398 60.685422 179.820110 -17.114880 9.500361 -1.599150 0.404260 -0.869177 -0.000000 0.000000 0.000000 0.000000 0.000000 0.000000 0.000000 
2.972876 16.025119 2.145156 -1.639157 -88.293564 42.735948 -9.924004 1.029577 0.619601 -22.329876 0.962070 -71.813541 -3.509335 4.176387 47.119836 2.496967 6.120328 -19.938109 -1.393600 0.000000 -32.238600 7.658699 1.494156 -1.427273 14.959539 -17.296345 -71.337766 4.992744 -5.030504 40.573572 0.614165 4.979319 -5.442452 0.163400 0.000000 -71.706100 6.080988 -3.093416 2.660347 0.880553 -3.446181 -2.818833 -5.277275 -3.373614 -2.045841 11.986021 -14.304056 -6.739668 -2.414141 -0.161236 -0.226058 0.000000 0.000000 0.000000 19.231894 1.178175 -1.699580 -86.691321 -17.471128 14.190467 179.292986 -56.279613 179.841122 11.679210 -2.383183 -0.335353 -0.225146 0.871575 -0.000000 0.000000 0.000000 0.000000 0.000000 0.000000 0.000000 1.949799 -11.670470 0.761550 77.593304 11.693601 20.786287 -179.725280 60.698715 179.820321 -16.978148 9.619391 -1.605171 0.397913 -0.874616 -0.000000 0.000000 0.000000 0.000000 0.000000 0.000000 0.000000 
2.965134 16.034948 2.150618 -0.847456 -87.722886 41.704015 -9.911244 1.035405 0.724310 -22.094900 0.760592 -71.446343 -3.477737 4.109674 46.951491 2.466656 6.024774 -19.821569 -1.363200 0.000000 -32.384800 7.685011 1.477838 -1.496608 15.041288 -17.703556 -70.921974 4.990695 -5.003342 40.492766 0.561336 4.737726 -5.527811 0.138301 -0.000000 -71.718800 6.134167 -3.007684 2.555198 0.895806 -3.366260 -2.841400 -5.220897 -3.292406 -2.051697 11.906462 -14.171978 -6.735589 -2.401492 -0.160592 -0.221694 0.000000 0.000000 0.000000 19.225924 1.398188 -1.678702 -86.840845 -17.506303 14.603107 179.259240 -56.279502 179.841028 11.654745 -2.384170 -0.334875 -0.222305 0.873070 0.000000 0.000000 0.000000 0.000000 0.000000 0.000000 0.000000 1.770288 -11.464937 0.711984 77.668358 11.994710 20.373868 -179.714330 60.745503 179.820276 -16.863925 9.693055 -1.605796 0.391413 -0.878475 -0.000000 0.000000 0.000000 0.000000 0.000000 0.000000 0.000000 
2.956703 16.045382 2.155590 -0.094730 -87.133390 40.705165 -9.896740 1.043252 0.836464 -21.868226 0.544329 -71.060390 -3.446535 4.038372 46.764059 2.435243 5.926153 -19.694136 -1.331300 0.000000 -32.529300 7.713749 1.457138 -1.561860 15.119507 -18.133000 -70.500196 4.990911 -4.975144 40.396802 0.509119 4.498664 -5.611593 0.114300 -0.000000 -71.730800 6.182974 -2.913171 2.433089 0.910717 -3.277548 -2.869251 -5.157831 -3.202625 -2.065913 11.799989 -14.011117 -6.724535 -2.387665 -0.159997 -0.214921 0.000000 0.000000 0.000000 19.207760 1.623181 -1.654686 -86.988710 -17.551247 15.038329 179.223745 -56.297593 179.840820 11.639007 -2.377790 -0.333801 -0.219645 0.874330 -0.000000 0.000000 0.000000 0.000000 0.000000 0.000000 0.000000 1.563879 -11.219463 0.658594 77.739404 12.295116 19.900194 -179.692267 60.825717 179.819665 -16.802959 9.716297 -1.603326 0.385386 -0.880547 -0.000000 0.000000 0.000000 0.000000 0.000000 0.000000 0.000000 
2.947682 16.056475 2.159934 0.653530 -86.524432 39.703690 -9.878165 1.053683 0.954604 -21.654377 0.313978 -70.652960 -3.416215 3.962274 46.556403 2.402604 5.823875 -19.555828 -1.298000 0.000000 -32.667300 7.747001 1.433225 -1.623253 15.191007 -18.587750 -70.073280 4.993253 -4.946606 40.286785 0.457909 4.264311 -5.693251 0.091700 -0.000000 -71.743900 6.224916 -2.808843 2.295788 0.924527 -3.178809 -2.902183 -5.088527 -3.102960 -2.089772 11.666182 -13.820389 -6.705969 -2.373243 -0.159499 -0.205605 0.000000 0.000000 0.000000 19.180302 1.850268 -1.628327 -87.133034 -17.611140 15.497792 179.186416 -56.336171 179.840470 11.634398 -2.362415 -0.332133 -0.217264 0.875284 -0.000000 0.000000 0.000000 0.000000 0.000000 0.000000 0.000000 1.334333 -10.932901 0.602292 77.796661 12.592948 19.364678 -179.657455 60.938040 179.818192 -16.826347 9.685836 -1.600557 0.380710 -0.880758 -0.000000 0.000000 0.000000 0.000000 0.000000 0.000000 0.000000 
2.937907 16.068135 2.163606 1.403420 -85.893733 38.696417 -9.854897 1.066542 1.079127 -21.455422 0.068511 -70.225075 -3.386950 3.881143 46.327416 2.368406 5.716903 -19.403919 -1.262900 -0.000000 -32.819700 7.785613 1.405397 -1.679076 15.253689 -19.065984 -69.644166 4.997637 -4.918152 40.163176 0.407524 4.033447 -5.772062 0.070200 -0.000000 -71.758700 6.256731 -2.692810 2.141059 0.936597 -3.067967 -2.940644 -5.011971 -2.991326 -2.123645 11.505642 -13.606710 -6.679959 -2.359027 -0.159163 -0.193687 0.000000 0.000000 0.000000 19.149870 2.069239 -1.601793 -87.277699 -17.683909 15.979096 179.145809 -56.392904 179.840017 11.638226 -2.340231 -0.329975 -0.214954 0.875946 0.000000 0.000000 0.000000 0.000000 0.000000 0.000000 0.000000 1.089361 -10.613030 0.545207 77.820942 12.897336 18.773470 -179.611634 61.085227 179.815656 -16.959432 9.600996 -1.599686 0.378326 -0.879124 -0.000000 0.000000 0.000000 0.000000 0.000000 0.000000 0.000000 
2.927594 16.080584 2.166422 2.169899 -85.241859 37.663370 -9.825422 1.081375 1.206721 -21.276872 -0.186599 -69.769532 -3.359525 3.794774 46.074764 2.332066 5.603283 -19.238034 -1.225900 0.000000 -32.980000 7.830945 1.374716 -1.730545 15.302327 -19.571394 -69.208565 5.003725 -4.890150 40.025648 0.358502 3.808753 -5.845910 0.050200 0.000000 -71.779000 6.273743 -2.565605 1.973933 0.945948 -2.945135 -2.983713 -4.928011 -2.867791 -2.168708 11.318234 -13.365642 -6.643798 -2.345467 -0.159051 -0.178473 0.000000 0.000000 0.000000 19.117158 2.278727 -1.575124 -87.418739 -17.775066 16.483219 179.102168 -56.471289 179.839441 11.652224 -2.310182 -0.327325 -0.212780 0.876271 -0.000000 0.000000 0.000000 0.000000 0.000000 0.000000 0.000000 0.832876 -10.256250 0.487671 77.802475 13.217370 18.124973 -179.556320 61.271465 179.812053 -17.202140 9.478015 -1.602815 0.378185 -0.876121 -0.000000 0.000000 0.000000 0.000000 0.000000 0.000000 0.000000 
